<?xml version="1.0" encoding="UTF-8" standalone="no"?><!DOCTYPE svg PUBLIC "-//W3C//DTD SVG 1.1//EN" "http://www.w3.org/Graphics/SVG/1.1/DTD/svg11.dtd"><svg width="100%" height="100%" viewBox="0 0 123 123" version="1.1" xmlns="http://www.w3.org/2000/svg" xmlns:xlink="http://www.w3.org/1999/xlink" xml:space="preserve" xmlns:serif="http://www.serif.com/" style="fill-rule:evenodd;clip-rule:evenodd;stroke-linejoin:round;stroke-miterlimit:2;"><g id="Logo"><path d="M91.721,92.723c0.913,-1.066 1.578,-2.284 1.99,-3.587l29.026,-0c-1.495,17.264 -14.803,33.744 -40.917,33.744l-81.82,0l7.465,-26.061l25.698,0l1.182,-4.096l1.415,0l0,-62.503l-4.042,0c-0.919,1.079 -1.593,2.303 -2.025,3.591l-29.527,-0c1.649,-17.578 15.593,-33.811 41.342,-33.811l81.373,-0l-7.465,26.061l-24.691,0l-1.21,4.159l-1.418,0l0,62.503l3.626,0Zm-41.394,4.096l23.208,0l1.164,-4.096l1.396,0l0,-62.503l-1.396,0l-1.177,-4.159l-23.178,0l-1.186,4.159l-1.401,0l0,62.503l1.401,0l1.168,4.096Zm-14.087,-66.599l0,62.503l1.44,0l0,-62.503l-1.44,0Zm51.375,62.503l0,-62.503l-1.44,0l0,62.503l1.44,0Zm-49.455,0l1.44,0l0,-62.503l-1.44,0l0,62.503Zm1.92,0l1.44,0l0,-62.503l-1.44,0l0,62.503Zm1.92,0l1.44,0l0,-62.503l-1.44,-0l0,62.503Zm1.92,0l1.438,0l0,-62.503l-1.438,0l0,62.503Zm1.918,0l1.44,0l0,-62.503l-1.44,0l0,62.503Zm30.737,-62.503l0,62.503l1.44,0l0,-62.503l-1.44,0Zm1.92,62.503l1.44,0l0,-62.503l-1.44,0l0,62.503Zm1.92,0l1.44,0l0,-62.503l-1.44,-0l0,62.503Zm1.92,0l1.44,0l0,-62.503l-1.44,0l0,62.503Zm1.92,0l1.44,0l0,-62.503l-1.44,-0l0,62.503Z" style="fill:#356054;"/><path d="M0.96,39.584l0.96,0l0,9.632c-0.375,-1.119 -0.695,-2.254 -0.96,-3.401l-0,-6.232Zm1.92,-0l0.96,0l0,14.262c-0.343,-0.687 -0.663,-1.383 -0.96,-2.087l0,-12.174Zm1.92,0l0.96,0l0,17.627c-0.335,-0.518 -0.655,-1.043 -0.96,-1.575l-0,-16.052Zm1.92,-0l0.96,0l-0,20.31c-0.331,-0.419 -0.651,-0.844 -0.96,-1.274l-0,-19.036Zm1.92,0l0.96,0l0,22.54c-0.329,-0.35 -0.648,-0.706 -0.96,-1.067l-0,-21.473Zm1.92,0l0.96,0l0,24.435c-0.327,-0.299 -0.647,-0.602 -0.96,-0.911l0,-23.524Zm1.92,0l0.96,0l0,26.067c-0.326,-0.258 -0.646,-0.52 -0.96,-0.787l0,-25.28Zm1.92,0l0.96,-0l0,27.483c-0.325,-0.224 -0.645,-0.452 -0.96,-0.684l-0,-26.799Zm1.92,-0l0.96,0l-0,28.718c-0.325,-0.195 -0.645,-0.394 -0.96,-0.596l-0,-28.122Zm1.92,0l0.96,-0l0,29.795c-0.324,-0.17 -0.644,-0.343 -0.96,-0.52l-0,-29.275Zm1.92,-0l0.96,0l0,30.735c-0.324,-0.148 -0.644,-0.299 -0.96,-0.453l-0,-30.281Zm1.92,0l0.96,0l0,31.551c-0.323,-0.128 -0.643,-0.259 -0.96,-0.393l-0,-31.157Zm1.92,-0l0.96,0l-0,32.255c-0.323,-0.11 -0.643,-0.223 -0.96,-0.339l-0,-31.916Zm1.92,0l0.96,0l-0,32.858c-0.323,-0.093 -0.643,-0.19 -0.96,-0.289l-0,-32.569Zm1.92,-0l0.96,0l0,33.368c-0.323,-0.078 -0.643,-0.159 -0.96,-0.244l-0,-33.124Zm1.92,1.505c0.249,0.69 0.569,1.356 0.96,1.987l0,30.299c-0.323,-0.064 -0.643,-0.131 -0.96,-0.201l-0,-32.085Zm1.92,3.295c0.295,0.343 0.615,0.67 0.96,0.979l-0,28.355c-0.322,-0.051 -0.642,-0.105 -0.96,-0.162l-0,-29.172Zm1.92,1.746c0.305,0.217 0.625,0.421 0.96,0.612l0,27.244c-0.322,-0.039 -0.642,-0.08 -0.96,-0.125l-0,-27.731Zm1.92,1.102c0.309,0.141 0.629,0.271 0.96,0.39l0,26.56c-0.322,-0.027 -0.642,-0.057 -0.96,-0.09l-0,-26.861Zm1.92,0.695c0.311,0.086 0.631,0.164 0.96,0.231l0,26.155c-0.322,-0.016 -0.642,-0.035 -0.96,-0.057l-0,-26.329Zm1.92,0.396c0.313,0.044 0.633,0.079 0.96,0.106l0,25.951c-0.322,-0.006 -0.642,-0.015 -0.96,-0.026l-0,-26.031Zm1.92,0.158c0.174,0.005 0.349,0.007 0.526,0.007l0.434,0l0,25.903l-0.733,0c-0.076,0 -0.152,-0 -0.227,-0l-0,-25.91Zm1.92,0.007l0.96,0l0,25.903l-0.96,0l0,-25.903Zm1.92,0l0.96,0l0,25.903l-0.96,0l-0,-25.903Zm1.92,0l0.96,0l0,25.903l-0.96,0l0,-25.903Zm1.92,0l0.96,0l0,25.903l-0.96,0l0,-25.903Zm1.92,0l0.96,0l0,25.903l-0.96,0l0,-25.903Zm1.92,0l0.96,0l0,25.903l-0.96,0l0,-25.903Zm1.92,0l0.96,0l0,25.903l-0.96,0l0,-25.903Zm1.92,0l0.96,0l0,25.903l-0.96,0l0,-25.903Zm1.92,0l0.96,0l0,25.903l-0.96,0l0,-25.903Zm1.92,0l0.96,0l0,25.903l-0.96,0l0,-25.903Zm1.92,0l0.96,0l0,25.903l-0.96,0l0,-25.903Zm1.92,0l0.96,0l0,25.903l-0.96,0l0,-25.903Zm1.92,0l0.96,0l0,25.903l-0.96,0l0,-25.903Zm1.92,0l0.96,0l0,25.903l-0.96,0l0,-25.903Zm1.92,0l0.96,0l0,25.903l-0.96,0l0,-25.903Zm1.92,0l0.96,0l0,25.903l-0.96,0l0,-25.903Zm1.92,0l0.96,0l0,25.903l-0.96,0l0,-25.903Zm1.92,0l0.96,0l0,25.903l-0.96,0l0,-25.903Zm1.92,0l0.96,0l0,25.903l-0.96,0l0,-25.903Zm1.92,0l0.96,0l0,25.903l-0.96,0l0,-25.903Zm1.92,0l0.22,0c0.248,0 0.494,0.002 0.74,0.005l0,25.928c-0.314,-0.018 -0.634,-0.028 -0.96,-0.03l-0,-25.903Zm1.92,0.025c0.322,0.009 0.642,0.022 0.96,0.036l-0,26.1c-0.312,-0.057 -0.632,-0.105 -0.96,-0.144l-0,-25.992Zm1.92,0.089c0.322,0.021 0.642,0.044 0.96,0.07l-0,26.47c-0.311,-0.104 -0.631,-0.199 -0.96,-0.283l-0,-26.257Zm1.92,0.157c0.322,0.032 0.642,0.067 0.96,0.105l0,27.106c-0.308,-0.166 -0.628,-0.32 -0.96,-0.463l0,-26.748Zm1.92,0.229c0.322,0.045 0.642,0.092 0.96,0.143l-0,28.139c-0.303,-0.254 -0.623,-0.495 -0.96,-0.721l0,-27.56Zm1.92,0.305c0.322,0.058 0.642,0.119 0.96,0.182l0,29.88c-0.289,-0.41 -0.609,-0.803 -0.96,-1.178l-0,-28.884Zm1.92,0.386c0.323,0.072 0.643,0.147 0.96,0.225l0,33.46l-0.144,0c-0.182,-0.808 -0.454,-1.603 -0.816,-2.365l-0,-31.319Zm1.92,0.472c0.323,0.087 0.643,0.177 0.96,0.27l0,32.942l-0.96,0l-0,-33.213Zm1.92,0.564c0.323,0.103 0.643,0.21 0.96,0.319l0,32.329l-0.96,0l-0,-32.648Zm1.92,0.664c0.323,0.121 0.643,0.245 0.96,0.372l-0,31.612l-0.96,0l0,-31.984Zm1.92,0.773c0.323,0.14 0.643,0.284 0.96,0.431l-0,30.78l-0.96,0l0,-31.211Zm1.92,0.893c0.324,0.161 0.644,0.327 0.96,0.495l0,29.822l-0.96,0l-0,-30.318Zm1.92,1.026c0.324,0.185 0.644,0.375 0.96,0.568l-0,28.724l-0.96,0l0,-29.292Zm1.92,1.175c0.325,0.213 0.645,0.429 0.96,0.65l0,27.467l-0.96,0l-0,-28.117Zm1.92,1.346c0.325,0.244 0.645,0.493 0.96,0.746l0,26.025l-0.96,0l-0,-26.771Zm1.92,1.545c0.326,0.282 0.646,0.568 0.96,0.859l0,24.366l-0.96,0l-0,-25.225Zm1.92,1.784c0.328,0.328 0.648,0.66 0.96,0.998l-0,22.443l-0.96,0l0,-23.441Zm1.92,2.08c0.329,0.387 0.649,0.779 0.96,1.178l0,20.184l-0.96,0l-0,-21.361Zm1.92,2.467c0.332,0.468 0.652,0.943 0.96,1.424l0,17.469l-0.96,0l0,-18.894Zm1.92,3.015c0.338,0.594 0.658,1.196 0.96,1.806l-0,14.072l-0.96,0l-0,-15.879Zm1.92,3.909c0.352,0.841 0.672,1.694 0.96,2.557l0,9.412l-0.96,0l0,-11.969Zm1.92,5.973c0.454,1.97 0.747,3.976 0.879,5.996l-0.879,0l0,-5.996Z" style="fill:#356054;"/></g></svg>